<svg width="48" height="48" viewBox="0 0 48 48" fill="none" xmlns="http://www.w3.org/2000/svg">
<g clip-path="url(#clip0_307_326)">
<path d="M44.9997 7.95203H38.8277C38.4322 7.95211 38.0456 8.06945 37.7168 8.28922C37.388 8.50899 37.1317 8.82132 36.9803 9.18672C36.829 9.55212 36.7894 9.95418 36.8665 10.3421C36.9437 10.73 37.1341 11.0863 37.4137 11.366L39.5857 13.538L32.4137 20.708C32.0326 21.0722 31.5258 21.2755 30.9987 21.2755C30.4716 21.2755 29.9648 21.0722 29.5837 20.708L29.2437 20.366C28.1009 19.2742 26.5812 18.6649 25.0007 18.6649C23.4202 18.6649 21.9005 19.2742 20.7577 20.366L10.5577 30.566C10.1819 30.9429 9.97118 31.4536 9.97193 31.9859C9.97268 32.5181 10.1848 33.0282 10.5617 33.404C10.9386 33.7798 11.4493 33.9905 11.9815 33.9898C12.5138 33.989 13.0239 33.7769 13.3997 33.4L23.5997 23.2C23.9805 22.8354 24.4874 22.6318 25.0147 22.6318C25.542 22.6318 26.0489 22.8354 26.4297 23.2L26.7697 23.542C27.9129 24.633 29.4325 25.2417 31.0127 25.2417C32.5929 25.2417 34.1125 24.633 35.2557 23.542L42.4277 16.37L44.5997 18.542C44.8803 18.8171 45.2358 19.0034 45.6217 19.0777C46.0076 19.152 46.4069 19.1109 46.7696 18.9597C47.1323 18.8084 47.4424 18.5536 47.6612 18.2272C47.8799 17.9007 47.9977 17.517 47.9997 17.124V10.952C47.9997 10.1564 47.6836 9.39332 47.121 8.83071C46.5584 8.2681 45.7953 7.95203 44.9997 7.95203Z" fill="#0A0117"/>
<path d="M46 43.952H10C8.4087 43.952 6.88258 43.3199 5.75736 42.1946C4.63214 41.0694 4 39.5433 4 37.952V2C4 1.46957 3.78929 0.960859 3.41421 0.585786C3.03914 0.210714 2.53043 0 2 0C1.46957 0 0.960859 0.210714 0.585786 0.585786C0.210714 0.960859 0 1.46957 0 2L0 37.952C0.00317572 40.6032 1.05776 43.1449 2.93244 45.0196C4.80712 46.8942 7.34881 47.9488 10 47.952H46C46.5304 47.952 47.0391 47.7413 47.4142 47.3662C47.7893 46.9911 48 46.4824 48 45.952C48 45.4216 47.7893 44.9129 47.4142 44.5378C47.0391 44.1627 46.5304 43.952 46 43.952Z" fill="#0A0117"/>
</g>
<defs>
<clipPath id="clip0_307_326">
<rect width="48" height="48" fill="white"/>
</clipPath>
</defs>
</svg>
