<svg width="48" height="48" viewBox="0 0 48 48" fill="none" xmlns="http://www.w3.org/2000/svg">
<g clip-path="url(#clip0_74_157)">
<path d="M36 13.9992C36 14.3947 35.8827 14.7814 35.6629 15.1103C35.4432 15.4392 35.1308 15.6956 34.7654 15.8469C34.3999 15.9983 33.9978 16.0379 33.6098 15.9608C33.2219 15.8836 32.8655 15.6931 32.5858 15.4134C32.3061 15.1337 32.1156 14.7773 32.0384 14.3894C31.9613 14.0014 32.0009 13.5993 32.1522 13.2338C32.3036 12.8684 32.56 12.556 32.8889 12.3362C33.2178 12.1165 33.6044 11.9992 34 11.9992C34.5304 11.9992 35.0391 12.2099 35.4142 12.585C35.7893 12.96 36 13.4688 36 13.9992ZM28 17.9992C27.6044 17.9992 27.2178 18.1165 26.8889 18.3362C26.56 18.556 26.3036 18.8684 26.1522 19.2338C26.0009 19.5993 25.9613 20.0014 26.0384 20.3894C26.1156 20.7773 26.3061 21.1337 26.5858 21.4134C26.8655 21.6931 27.2219 21.8836 27.6098 21.9608C27.9978 22.0379 28.3999 21.9983 28.7654 21.8469C29.1308 21.6956 29.4432 21.4392 29.6629 21.1103C29.8827 20.7814 30 20.3947 30 19.9992C30 19.4688 29.7893 18.96 29.4142 18.585C29.0391 18.2099 28.5304 17.9992 28 17.9992ZM22 23.9992C21.6044 23.9992 21.2178 24.1165 20.8889 24.3362C20.56 24.556 20.3036 24.8684 20.1522 25.2338C20.0009 25.5993 19.9613 26.0014 20.0384 26.3894C20.1156 26.7773 20.3061 27.1337 20.5858 27.4134C20.8655 27.6931 21.2219 27.8836 21.6098 27.9608C21.9978 28.0379 22.3999 27.9983 22.7654 27.8469C23.1308 27.6956 23.4432 27.4392 23.6629 27.1103C23.8827 26.7814 24 26.3947 24 25.9992C24 25.4688 23.7893 24.96 23.4142 24.585C23.0391 24.2099 22.5304 23.9992 22 23.9992ZM47.732 5.91518L47.582 6.33718C44.578 14.6732 41.696 22.5992 36 29.6392V29.9992C35.9965 33.0626 35.3544 36.0916 34.1147 38.893C32.875 41.6944 31.0649 44.2065 28.8 46.2692C27.601 47.3754 26.0313 47.9925 24.4 47.9992C22.7022 47.9939 21.0756 47.3163 19.8761 46.1146C18.6767 44.9129 18.0021 43.285 18 41.5872V39.2852C16.5242 38.8092 15.1808 37.9933 14.078 36.9032L14 36.8272L9.414 41.4132C9.0368 41.7775 8.53159 41.9791 8.0072 41.9745C7.4828 41.97 6.98118 41.7596 6.61036 41.3888C6.23955 41.018 6.02921 40.5164 6.02465 39.992C6.0201 39.4676 6.22168 38.9624 6.586 38.5852L11.172 33.9992L11.094 33.9232C10.0031 32.8191 9.18539 31.4754 8.706 29.9992H6.726C4.94299 29.9976 3.23343 29.2887 1.97246 28.0281C0.711492 26.7675 0.00211814 25.0582 0 23.2752C0.00353775 21.5338 0.675007 19.8601 1.876 18.5992C3.967 16.4517 6.47758 14.7575 9.25152 13.6221C12.0254 12.4866 15.0034 11.9342 18 11.9992H18.36C25.4 6.30518 33.32 3.42318 41.652 0.421183L42.084 0.267183C42.8724 -0.022654 43.7273 -0.0807657 44.5476 0.0997145C45.368 0.280195 46.1195 0.691724 46.7135 1.28568C47.3075 1.87963 47.719 2.63119 47.8995 3.45155C48.0799 4.27191 48.0218 5.12679 47.732 5.91518ZM6.726 25.9992H8.2C8.35025 24.237 8.96515 22.5462 9.982 21.0992C11.0981 19.4934 12.3061 17.9535 13.6 16.4872C10.2451 17.1816 7.17791 18.8727 4.8 21.3392C4.29412 21.8575 4.00758 22.5509 4 23.2752C4.00106 23.9977 4.28867 24.6902 4.79972 25.2009C5.31077 25.7116 6.00353 25.9987 6.726 25.9992ZM31.4 34.5032C29.9655 35.7589 28.4618 36.9334 26.896 38.0212C25.4478 39.0282 23.7583 39.6327 22 39.7732V41.5872C22.0011 42.2269 22.2558 42.8401 22.7083 43.2923C23.1609 43.7444 23.7743 43.9987 24.414 43.9992C25.0482 43.9898 25.656 43.7437 26.118 43.3092C28.6964 40.949 30.5317 37.8891 31.4 34.5032ZM43.874 4.12518C43.8207 4.0659 43.7502 4.02478 43.6724 4.00756C43.5946 3.99035 43.5133 3.99791 43.44 4.02918L43.01 4.18518C33.322 7.67518 24.956 10.6912 17.752 17.8932C16.0995 19.5973 14.5954 21.4393 13.256 23.3992C12.4413 24.5555 12.0614 25.9625 12.1832 27.3717C12.3051 28.781 12.9209 30.1019 13.922 31.1012L16.906 34.0812C17.9048 35.0815 19.2248 35.6971 20.6332 35.8193C22.0415 35.9415 23.4478 35.5625 24.604 34.7492C26.5628 33.41 28.4035 31.9059 30.106 30.2532C37.306 23.0532 40.326 14.6792 43.818 4.98718L43.97 4.56518C44.0024 4.49108 44.0105 4.40864 43.9933 4.32963C43.976 4.25062 43.9343 4.17907 43.874 4.12518Z" fill="#0A0117"/>
</g>
<defs>
<clipPath id="clip0_74_157">
<rect width="48" height="48" fill="white"/>
</clipPath>
</defs>
</svg>
