<svg width="48" height="48" viewBox="0 0 48 48" fill="none" xmlns="http://www.w3.org/2000/svg">
<g clip-path="url(#clip0_74_174)">
<path d="M32.0005 12C32.5309 12 33.0396 12.2107 33.4147 12.5858C33.7898 12.9609 34.0005 13.4696 34.0005 14C34.0005 14.5304 33.7898 15.0391 33.4147 15.4142C33.0396 15.7893 32.5309 16 32.0005 16H16.0005C15.4701 16 14.9613 15.7893 14.5863 15.4142C14.2112 15.0391 14.0005 14.5304 14.0005 14C14.0005 13.4696 14.2112 12.9609 14.5863 12.5858C14.9613 12.2107 15.4701 12 16.0005 12H32.0005ZM47.4145 47.414C47.0394 47.7889 46.5308 47.9996 46.0005 47.9996C45.4702 47.9996 44.9615 47.7889 44.5865 47.414L39.7725 42.6C38.3468 43.5099 36.6918 43.9955 35.0005 44C33.2205 44 31.4804 43.4722 30.0004 42.4832C28.5203 41.4943 27.3668 40.0887 26.6856 38.4441C26.0044 36.7996 25.8262 34.99 26.1734 33.2442C26.5207 31.4984 27.3779 29.8947 28.6365 28.636C29.8952 27.3774 31.4988 26.5202 33.2447 26.1729C34.9905 25.8257 36.8001 26.0039 38.4446 26.6851C40.0892 27.3663 41.4948 28.5198 42.4837 29.9999C43.4726 31.4799 44.0005 33.22 44.0005 35C43.996 36.6913 43.5104 38.3464 42.6005 39.772L47.4145 44.586C47.7894 44.9611 48.0001 45.4697 48.0001 46C48.0001 46.5303 47.7894 47.0389 47.4145 47.414ZM35.0005 40C35.9894 40 36.9561 39.7068 37.7783 39.1573C38.6006 38.6079 39.2414 37.827 39.6199 36.9134C39.9983 35.9998 40.0973 34.9945 39.9044 34.0245C39.7115 33.0546 39.2353 32.1637 38.536 31.4645C37.8368 30.7652 36.9458 30.289 35.9759 30.0961C35.006 29.9031 34.0007 30.0022 33.0871 30.3806C32.1734 30.759 31.3925 31.3999 30.8431 32.2221C30.2937 33.0444 30.0005 34.0111 30.0005 35C30.0005 36.3261 30.5273 37.5979 31.465 38.5355C32.4026 39.4732 33.6744 40 35.0005 40ZM26.0005 44H14.0005C12.4092 44 10.8831 43.3679 9.75785 42.2426C8.63263 41.1174 8.00049 39.5913 8.00049 38V10C8.00049 8.4087 8.63263 6.88258 9.75785 5.75736C10.8831 4.63214 12.4092 4 14.0005 4H38.0005C38.5309 4 39.0396 4.21071 39.4147 4.58579C39.7898 4.96086 40.0005 5.46957 40.0005 6V22C40.0005 22.5304 40.2112 23.0391 40.5863 23.4142C40.9613 23.7893 41.4701 24 42.0005 24C42.5309 24 43.0396 23.7893 43.4147 23.4142C43.7898 23.0391 44.0005 22.5304 44.0005 22V6C44.0005 4.4087 43.3683 2.88258 42.2431 1.75736C41.1179 0.632141 39.5918 0 38.0005 0L14.0005 0C11.3493 0.00317572 8.8076 1.05776 6.93293 2.93244C5.05825 4.80712 4.00366 7.34881 4.00049 10V38C4.00366 40.6512 5.05825 43.1929 6.93293 45.0676C8.8076 46.9422 11.3493 47.9968 14.0005 48H26.0005C26.5309 48 27.0396 47.7893 27.4147 47.4142C27.7898 47.0391 28.0005 46.5304 28.0005 46C28.0005 45.4696 27.7898 44.9609 27.4147 44.5858C27.0396 44.2107 26.5309 44 26.0005 44Z" fill="#0A0117"/>
</g>
<defs>
<clipPath id="clip0_74_174">
<rect width="48" height="48" fill="white"/>
</clipPath>
</defs>
</svg>
